<?xml version="1.0" encoding="UTF-8" standalone="no"?>
<svg xmlns:dc="http://purl.org/dc/elements/1.1/" xmlns:cc="http://creativecommons.org/ns#" xmlns:rdf="http://www.w3.org/1999/02/22-rdf-syntax-ns#" xmlns:svg="http://www.w3.org/2000/svg" xmlns="http://www.w3.org/2000/svg" xmlns:sodipodi="http://sodipodi.sourceforge.net/DTD/sodipodi-0.dtd" xmlns:inkscape="http://www.inkscape.org/namespaces/inkscape" version="1.1" id="svg3045" inkscape:version="0.92.3 (2405546, 2018-03-11)" sodipodi:docname="logo.svg" x="0px" y="0px" width="150" height="150" viewBox="0 0 150 150" enable-background="new -260.354 -41.031 485.354 82.031" xml:space="preserve">
  <metadata id="metadata3773"><rdf:RDF><cc:Work rdf:about=""><dc:format>image/svg+xml</dc:format><dc:type rdf:resource="http://purl.org/dc/dcmitype/StillImage"/><dc:title/></cc:Work></rdf:RDF></metadata>
  <g id="g3768" clip-path="none" transform="translate(-79.296974,105.09211)">
    <rect style="opacity:1;fill:#1084ca;fill-opacity:1;stroke-width:1.29099441" id="rect3827" width="150" height="150" x="79.296974" y="-105.09211" ry="22.644253"/>
    <path d="m 176.644,-51.86361 -11.691,29.106 h -0.225 l -11.688,-29.106 h -24.635 v -15.061 h -17.299 v 15.061 h -10.194 v 11.893 h 10.194 v 23.365 c 0,8.8140003 6.876,14.2440003 17.761,14.2440003 5.499,0 13.057,-1.226 17.297,-3.791 L 141.353,-16.60561 c -2.061,1.123 -5.043,2.049 -7.903,2.049 -3.44,0 -5.045,-1.537 -5.045,-6.153 v -19.261 h 12.918 l 17.331,36.8920003 h 12.374 L 193.944,-51.86361 Z m 0,0" id="path3764" inkscape:connector-curvature="0" style="fill:#ffffff"/>
    <path d="m 92.786,5.2833903 c -1.931,0 -3.502,-1.571 -3.502,-3.503 V -61.96261 c 0,-1.932 1.571,-3.503 3.502,-3.503 H 202.33 c 1.358,0.413 2.361,1.662 2.361,3.15 V 2.1323903 c 0,1.491 -1.003,2.739 -2.361,3.151 z M 215.853,-70.99061 H 92.786 c -4.981,0 -9.029,4.049 -9.029,9.028 V 1.7803903 c 0,4.977 4.048,9.0259997 9.029,9.0259997 h 123.067 c 4.979,0 9.031,-4.0499997 9.031,-9.0259997 V -61.96261 c 0,-4.978 -4.052,-9.028 -9.031,-9.028" id="path3766" inkscape:connector-curvature="0" style="fill:#ffffff"/>
  </g>
</svg>
